<svg xmlns="http://www.w3.org/2000/svg" width="300" height="300" viewBox="0 0 300 300" fill="none" stroke="#D58B79" stroke-width="1.5" stroke-linecap="round" stroke-linejoin="round">
  <g opacity="0.15">
    
    <g transform="translate(0, 10) rotate(-15, 60, 50)">
      <path d="M 35 50 Q 35 40 45 40 Q 55 30 70 40 Q 85 40 85 50 Q 95 55 85 65 Q 75 70 60 70 Q 40 70 35 60 Z" />
    </g>
    <g transform="translate(-20, 70) rotate(20, 150, 50)">
      <path d="M 150 40 L 153 48 L 161 48 L 155 53 L 157 61 L 150 56 L 143 61 L 145 53 L 139 48 L 147 48 Z" />
    </g>

    <g transform="translate(130, -30) rotate(15, 60, 145)">
      <path d="M 40 150 L 60 160 L 80 150 L 80 130 L 60 140 L 40 130 Z" />
      <path d="M 60 140 L 60 160" />
      <path d="M 45 138 L 55 143" />
      <path d="M 75 138 L 65 143" />
    </g>
    <g transform="translate(80, -20) rotate(-25, 150, 140)">
      <path d="M 140 140 L 140 160 Q 140 165 145 165 L 160 165 Q 165 165 165 160 L 165 140 Z" />
      <path d="M 165 145 Q 175 145 175 152 Q 175 160 165 160" />
      <path d="M 148 130 Q 150 120 145 110" />
      <path d="M 158 130 Q 160 120 155 110" />
    </g>

    <g transform="translate(-40, 120) rotate(-10, 150, 140)">
      <path d="M 140 140 L 140 160 Q 140 165 145 165 L 160 165 Q 165 165 165 160 L 165 140 Z" />
      <path d="M 165 145 Q 175 145 175 152 Q 175 160 165 160" />
      <path d="M 148 130 Q 150 120 145 110" />
      <path d="M 158 130 Q 160 120 155 110" />
    </g>
    <g transform="translate(40, 180) rotate(25, 60, 50)">
      <path d="M 35 50 Q 35 40 45 40 Q 55 30 70 40 Q 85 40 85 50 Q 95 55 85 65 Q 75 70 60 70 Q 40 70 35 60 Z" />
    </g>

    <g transform="translate(180, 100) rotate(-20, 60, 145)">
      <path d="M 40 150 L 60 160 L 80 150 L 80 130 L 60 140 L 40 130 Z" />
      <path d="M 60 140 L 60 160" />
      <path d="M 45 138 L 55 143" />
      <path d="M 75 138 L 65 143" />
    </g>
    <g transform="translate(90, 160) rotate(15, 150, 50)">
      <path d="M 150 40 L 153 48 L 161 48 L 155 53 L 157 61 L 150 56 L 143 61 L 145 53 L 139 48 L 147 48 Z" />
    </g>

  </g>
</svg>
